<svg xmlns="http://www.w3.org/2000/svg" xmlns:xlink="http://www.w3.org/1999/xlink" viewBox="0 0 1000 1000"><defs><style>.a{fill:url(#a);}.b{fill:url(#b);}</style><linearGradient id="a" x1="19.73" y1="518.16" x2="1058.8" y2="518.16" gradientUnits="userSpaceOnUse"><stop offset="0" stop-color="#ee2259"/><stop offset="0.26" stop-color="#eb2258"/><stop offset="0.44" stop-color="#e22054"/><stop offset="0.6" stop-color="#d21e4e"/><stop offset="0.75" stop-color="#bc1c46"/><stop offset="0.89" stop-color="#a0183b"/><stop offset="1" stop-color="#82142f"/></linearGradient><linearGradient id="b" x1="61.09" y1="291.71" x2="416.91" y2="457.63" xlink:href="#a"/></defs><title>logo</title><path class="a" d="M708.68,131.28A269,269,0,0,0,499,231.49,269,269,0,0,0,289.32,131.28C140.43,131.28,19.73,252,19.73,400.87c0,66.18,25.52,125.42,63.45,173.67C168,682.44,493.85,921.82,499,904.11c5.15,17.71,331-221.67,415.82-329.57,37.93-48.25,63.45-107.49,63.45-173.67C978.27,252,857.57,131.28,708.68,131.28Z"/><path class="b" d="M289.32,131.28C140.43,131.28,19.73,252,19.73,400.87c0,66.18,25.52,125.42,63.45,173.67a471.84,471.84,0,0,0,34.46,38.31L499,231.49A269,269,0,0,0,289.32,131.28Z"/></svg>